HIERARCHY
ROOT Hips
{
  OFFSET 0.000000 0.000000 0.000000
  CHANNELS 6 Xposition Yposition Zposition Xrotation Yrotation Zrotation
  JOINT Spine
  {
    OFFSET 0.556506 22.910117 -8.702633
    CHANNELS 3 Xrotation Yrotation Zrotation
    JOINT Chest
    {
      OFFSET 0.556506 22.910117 -8.702633
      CHANNELS 3 Xrotation Yrotation Zrotation
      JOINT Neck
      {
        OFFSET -0.117578 8.251941 -3.732120
        CHANNELS 3 Xrotation Yrotation Zrotation
        JOINT Head
        {
          OFFSET 0.165086 7.288370 -7.297039
          CHANNELS 3 Xrotation Yrotation Zrotation
          End Site
          {
            OFFSET 0.049526 2.186511 -2.189112
          }
        }
      }
      JOINT LeftShoulder
      {
        OFFSET 17.839599 -0.500831 -0.702444
        CHANNELS 3 Xrotation Yrotation Zrotation
        JOINT LeftArm
        {
          OFFSET 9.079516 -20.622869 2.588555
          CHANNELS 3 Xrotation Yrotation Zrotation
          JOINT LeftForeArm
          {
            OFFSET 5.220428 -21.248619 -7.941063
            CHANNELS 3 Xrotation Yrotation Zrotation
            JOINT LeftHand
            {
              OFFSET -0.200181 -5.027381 -2.224194
              CHANNELS 3 Xrotation Yrotation Zrotation
              End Site
              {
                OFFSET -0.060054 -1.508214 -0.667258
              }
            }
          }
        }
      }
      JOINT RightShoulder
      {
        OFFSET -17.839599 0.500831 0.702444
        CHANNELS 3 Xrotation Yrotation Zrotation
        JOINT RightArm
        {
          OFFSET -10.245414 -21.462999 7.460948
          CHANNELS 3 Xrotation Yrotation Zrotation
          JOINT RightForeArm
          {
            OFFSET -6.268969 -22.648376 -4.828816
            CHANNELS 3 Xrotation Yrotation Zrotation
            JOINT RightHand
            {
              OFFSET -0.212581 -5.374321 -1.680675
              CHANNELS 3 Xrotation Yrotation Zrotation
              End Site
              {
                OFFSET -0.063774 -1.612296 -0.504203
              }
            }
          }
        }
      }
    }
  }
  JOINT LeftUpLeg
  {
    OFFSET 11.658093 -0.477353 -0.993827
    CHANNELS 3 Xrotation Yrotation Zrotation
    JOINT LeftLeg
    {
      OFFSET -4.436175 -38.948665 4.498381
      CHANNELS 3 Xrotation Yrotation Zrotation
      JOINT LeftFoot
      {
        OFFSET 5.752072 -36.997542 12.776506
        CHANNELS 3 Xrotation Yrotation Zrotation
        End Site
        {
          OFFSET 1.725622 -11.099263 3.832952
        }
      }
    }
  }
  JOINT RightUpLeg
  {
    OFFSET -11.658093 0.477353 0.993827
    CHANNELS 3 Xrotation Yrotation Zrotation
    JOINT RightLeg
    {
      OFFSET 1.097931 -37.821674 7.428961
      CHANNELS 3 Xrotation Yrotation Zrotation
      JOINT RightFoot
      {
        OFFSET -0.709859 -38.281388 13.423531
        CHANNELS 3 Xrotation Yrotation Zrotation
        End Site
        {
          OFFSET -0.212958 -11.484416 4.027059
        }
      }
    }
  }
}
MOTION
Frames: 10
Frame Time: 0.083333
0.000000 60.000000 0.000000 -1.593515 0.093620 0.132230 -1.593515 0.093620 0.132230 0.000000 0.000000 0.000000 0.823576 -0.328809 -0.319135 5.000000 0.000000 0.000000 1.917583 0.729201 -1.298488 2.447467 0.022995 0.234298 0.000000 0.000000 0.000000 0.000000 0.000000 0.000000 3.645205 -1.740773 -0.139091 2.692280 -0.146059 -0.017249 0.000000 0.000000 0.000000 0.000000 0.000000 0.000000 -0.357428 0.081895 0.337377 -1.503019 0.210680 1.192554 0.000000 0.000000 0.000000 -2.094778 -0.108614 -0.212305 2.512821 -0.432969 -1.228696 0.000000 0.000000 0.000000
-0.382689 60.000000 0.024054 -1.370800 0.079815 0.111907 -1.370800 0.079815 0.111907 0.000000 0.000000 0.000000 0.623778 -0.346038 -0.339381 5.000000 0.000000 0.000000 1.559734 0.574152 -1.236326 2.042264 0.009922 0.218191 0.000000 0.000000 0.000000 0.000000 0.000000 0.000000 3.011379 -1.438637 -0.113379 2.226937 -0.120452 -0.015608 0.000000 0.000000 0.000000 0.000000 0.000000 0.000000 -0.315450 0.089360 0.435283 -1.288510 0.197155 1.066082 0.000000 0.000000 0.000000 -1.728088 -0.086901 -0.167467 2.049411 -0.428068 -1.204729 0.000000 0.000000 0.000000
-0.953537 60.000000 0.865025 -3.220986 0.168916 0.217365 -3.220986 0.168916 0.217365 0.000000 0.000000 0.000000 1.224681 -1.043766 -1.033397 5.000000 0.000000 0.000000 3.414502 1.189004 -3.347805 4.683024 -0.004036 0.565724 0.000000 0.000000 0.000000 0.000000 0.000000 0.000000 6.700101 -3.212667 -0.280351 4.867489 -0.257066 -0.059721 0.000000 0.000000 0.000000 0.000000 0.000000 0.000000 -1.017361 0.339035 1.710960 -2.610726 0.522457 2.499724 0.000000 0.000000 0.000000 -1.217831 -0.148430 -0.551147 2.568747 -1.083679 -3.145361 0.000000 0.000000 0.000000
-1.311586 60.000000 1.918080 -3.087111 0.078509 0.004085 -3.087111 0.078509 0.004085 0.000000 0.000000 0.000000 0.616556 -1.639665 -1.641874 5.000000 0.000000 0.000000 2.812538 0.793172 -4.518154 4.511581 -0.058917 0.678493 0.000000 0.000000 0.000000 0.000000 0.000000 0.000000 5.608772 -2.723369 -0.316346 3.757155 -0.167402 -0.174159 0.000000 0.000000 0.000000 0.000000 0.000000 0.000000 -2.098876 0.765282 3.755654 -0.700924 0.673805 2.158602 0.000000 0.000000 0.000000 1.238592 -0.117482 -0.842611 1.728264 -1.489012 -4.379509 0.000000 0.000000 0.000000
-1.547541 60.000000 2.586062 -2.399427 -0.097622 -0.388859 -2.399427 -0.097622 -0.388859 0.000000 0.000000 0.000000 0.502777 -1.798589 -1.801386 5.000000 0.000000 0.000000 2.950684 0.814046 -5.004715 4.924773 -0.015900 0.619156 0.000000 0.000000 0.000000 0.000000 0.000000 0.000000 5.083205 -2.458030 -0.234101 2.955145 -0.064401 -0.413054 0.000000 0.000000 0.000000 0.000000 0.000000 0.000000 -2.960318 1.086623 5.237464 3.218032 0.794121 0.945386 0.000000 0.000000 0.000000 2.612925 -0.179060 -1.500925 4.486733 -1.558325 -4.812640 0.000000 0.000000 0.000000
-1.640831 60.000000 2.848794 -1.278413 -0.177438 -0.532756 -1.278413 -0.177438 -0.532756 0.000000 0.000000 0.000000 0.694515 -1.721902 -1.724591 5.000000 0.000000 0.000000 4.011352 1.297663 -5.431978 5.437486 0.038742 0.544283 0.000000 0.000000 0.000000 0.000000 0.000000 0.000000 6.004703 -2.723473 0.332888 3.695698 -0.058527 -0.594412 0.000000 0.000000 0.000000 0.000000 0.000000 0.000000 0.624725 0.478538 4.929782 5.538807 1.118392 0.889497 0.000000 0.000000 0.000000 4.794712 -0.163585 -2.043663 7.605729 -1.572308 -5.158316 0.000000 0.000000 0.000000
-1.566611 60.000000 3.554641 0.092665 -0.219259 -0.572346 0.092665 -0.219259 -0.572346 0.000000 0.000000 0.000000 2.155181 -1.622268 -1.633807 5.000000 0.000000 0.000000 5.868270 2.199428 -5.655138 5.603304 0.092820 0.435085 0.000000 0.000000 0.000000 0.000000 0.000000 0.000000 8.364032 -3.779251 0.473133 4.384536 -0.075280 -0.666998 0.000000 0.000000 0.000000 0.000000 0.000000 0.000000 7.074067 -0.519242 4.463613 7.476646 1.484985 1.142339 0.000000 0.000000 0.000000 7.624137 -0.121033 -2.649618 11.235073 -1.544108 -5.484093 0.000000 0.000000 0.000000
-1.479553 60.000000 4.135714 0.741865 -0.204510 -0.500172 0.741865 -0.204510 -0.500172 0.000000 0.000000 0.000000 3.614709 -1.627772 -1.647791 5.000000 0.000000 0.000000 6.754743 2.630792 -5.787037 5.344207 0.102415 0.384686 0.000000 0.000000 0.000000 0.000000 0.000000 0.000000 8.943141 -4.063104 0.406260 5.109132 -0.127685 -0.603199 0.000000 0.000000 0.000000 0.000000 0.000000 0.000000 11.551442 -1.268573 2.618607 2.580663 1.132426 2.302598 0.000000 0.000000 0.000000 6.844454 -0.178753 -2.781820 10.282800 -1.815506 -6.470639 0.000000 0.000000 0.000000
-1.382387 60.000000 4.309451 1.384052 -0.178691 -0.396164 1.384052 -0.178691 -0.396164 0.000000 0.000000 0.000000 3.870479 -1.576996 -1.595164 5.000000 0.000000 0.000000 6.853979 2.674665 -5.877930 5.145773 0.089179 0.394454 0.000000 0.000000 0.000000 0.000000 0.000000 0.000000 9.284197 -4.130153 0.764263 5.105809 -0.141499 -0.549311 0.000000 0.000000 0.000000 0.000000 0.000000 0.000000 13.125682 -1.481714 2.189092 3.199366 1.209389 2.292940 0.000000 0.000000 0.000000 7.156975 -0.193516 -3.012750 11.136033 -2.026821 -7.455049 0.000000 0.000000 0.000000
-1.318737 60.000000 4.533718 2.117307 -0.171702 -0.335822 2.117307 -0.171702 -0.335822 0.000000 0.000000 0.000000 3.910119 -1.528538 -1.544438 5.000000 0.000000 0.000000 6.653519 2.574187 -5.885089 4.496540 0.021626 0.487128 0.000000 0.000000 0.000000 0.000000 0.000000 0.000000 8.735417 -3.673811 1.564677 5.588433 -0.136682 -0.659230 0.000000 0.000000 0.000000 0.000000 0.000000 0.000000 13.888453 -1.576749 1.826317 3.995555 1.342813 2.385744 0.000000 0.000000 0.000000 6.709609 -0.238866 -3.165782 10.643785 -2.238847 -8.208126 0.000000 0.000000 0.000000
